<svg width="40" height="40" viewBox="0 0 40 40" fill="none" xmlns="http://www.w3.org/2000/svg">
<rect width="40" height="40" rx="10" fill="#333333"/>
<path d="M27.2917 13.7692H23.75V13.0769C23.75 12.5261 23.5261 11.9978 23.1276 11.6083C22.7291 11.2188 22.1886 11 21.625 11H17.375C16.8114 11 16.2709 11.2188 15.8724 11.6083C15.4739 11.9978 15.25 12.5261 15.25 13.0769V13.7692H11.7083C11.5205 13.7692 11.3403 13.8422 11.2075 13.972C11.0746 14.1018 11 14.2779 11 14.4615C11 14.6451 11.0746 14.8212 11.2075 14.9511C11.3403 15.0809 11.5205 15.1538 11.7083 15.1538H12.4167V27.6154C12.4167 27.9826 12.5659 28.3348 12.8316 28.5945C13.0973 28.8541 13.4576 29 13.8333 29H25.1667C25.5424 29 25.9027 28.8541 26.1684 28.5945C26.4341 28.3348 26.5833 27.9826 26.5833 27.6154V15.1538H27.2917C27.4795 15.1538 27.6597 15.0809 27.7925 14.9511C27.9254 14.8212 28 14.6451 28 14.4615C28 14.2779 27.9254 14.1018 27.7925 13.972C27.6597 13.8422 27.4795 13.7692 27.2917 13.7692ZM18.0833 24.1538C18.0833 24.3375 18.0087 24.5135 17.8759 24.6434C17.743 24.7732 17.5629 24.8462 17.375 24.8462C17.1871 24.8462 17.007 24.7732 16.8741 24.6434C16.7413 24.5135 16.6667 24.3375 16.6667 24.1538V18.6154C16.6667 18.4318 16.7413 18.2557 16.8741 18.1258C17.007 17.996 17.1871 17.9231 17.375 17.9231C17.5629 17.9231 17.743 17.996 17.8759 18.1258C18.0087 18.2557 18.0833 18.4318 18.0833 18.6154V24.1538ZM22.3333 24.1538C22.3333 24.3375 22.2587 24.5135 22.1259 24.6434C21.993 24.7732 21.8129 24.8462 21.625 24.8462C21.4371 24.8462 21.257 24.7732 21.1241 24.6434C20.9913 24.5135 20.9167 24.3375 20.9167 24.1538V18.6154C20.9167 18.4318 20.9913 18.2557 21.1241 18.1258C21.257 17.996 21.4371 17.9231 21.625 17.9231C21.8129 17.9231 21.993 17.996 22.1259 18.1258C22.2587 18.2557 22.3333 18.4318 22.3333 18.6154V24.1538ZM22.3333 13.7692H16.6667V13.0769C16.6667 12.8933 16.7413 12.7172 16.8741 12.5874C17.007 12.4576 17.1871 12.3846 17.375 12.3846H21.625C21.8129 12.3846 21.993 12.4576 22.1259 12.5874C22.2587 12.7172 22.3333 12.8933 22.3333 13.0769V13.7692Z" fill="white"/>
</svg>
