<svg width="40" height="40" viewBox="0 0 40 40" fill="none" xmlns="http://www.w3.org/2000/svg">
<rect width="40" height="40" rx="10" fill="#333333"/>
<path d="M28.5781 15.4431L24.5562 11.4219C24.4225 11.2881 24.2637 11.182 24.089 11.1096C23.9143 11.0373 23.727 11 23.5379 11C23.3488 11 23.1615 11.0373 22.9868 11.1096C22.812 11.182 22.6533 11.2881 22.5196 11.4219L11.4221 22.5199C11.2878 22.6532 11.1813 22.8118 11.1089 22.9865C11.0364 23.1613 10.9994 23.3487 11 23.5378V27.56C11 27.9419 11.1517 28.3082 11.4218 28.5782C11.6918 28.8483 12.0581 29 12.44 29H27.5594C27.7503 29 27.9334 28.9241 28.0685 28.7891C28.2035 28.6541 28.2793 28.4709 28.2793 28.28C28.2793 28.089 28.2035 27.9059 28.0685 27.7709C27.9334 27.6358 27.7503 27.56 27.5594 27.56H18.4985L28.5781 17.4799C28.7119 17.3461 28.818 17.1874 28.8904 17.0126C28.9627 16.8379 29 16.6506 29 16.4615C29 16.2724 28.9627 16.0851 28.8904 15.9104C28.818 15.7356 28.7119 15.5769 28.5781 15.4431ZM25.3995 18.622L21.3784 14.5998L23.5383 12.4398L27.5594 16.4619L25.3995 18.622Z" fill="white"/>
</svg>
