<svg width="222" height="44" viewBox="0 0 222 44" fill="none" xmlns="http://www.w3.org/2000/svg">
<path d="M2.5 38.4102C1.35156 38.4102 0.777344 38.0911 0.777344 37.4531C0.777344 36.7969 1.16016 36.4688 1.92578 36.4688C3.07422 36.4688 3.88542 36.2956 4.35938 35.9492C5.28906 35.2747 5.83594 34.1172 6 32.4766C6.03646 32.0938 6.07292 31.5104 6.10938 30.7266C6.16406 29.9427 6.21875 29.0312 6.27344 27.9922C6.34635 26.9349 6.41016 25.7773 6.46484 24.5195C6.51953 23.2435 6.57422 21.9401 6.62891 20.6094C6.70182 19.2604 6.76562 17.9115 6.82031 16.5625C6.875 15.2135 6.92057 13.9284 6.95703 12.707C7.04818 9.66276 7.09375 7.73958 7.09375 6.9375C7.09375 6.13542 7.02995 5.50651 6.90234 5.05078C6.79297 4.59505 6.62891 4.22135 6.41016 3.92969C6.00911 3.41927 5.36198 3.10026 4.46875 2.97266C2.90104 2.75391 2.11719 2.41667 2.11719 1.96094C2.11719 1.65104 2.22656 1.40495 2.44531 1.22266C2.68229 1.02214 2.98307 0.921875 3.34766 0.921875L7.64062 1.30469L10.0469 1.19531C10.4844 1.19531 10.849 1.38672 11.1406 1.76953C11.4323 2.13411 11.7604 2.68099 12.125 3.41016L25.3594 30.8359C25.6693 30.125 26.0794 29.1862 26.5898 28.0195C27.1003 26.8529 27.6562 25.5586 28.2578 24.1367C28.8776 22.7148 29.5339 21.2109 30.2266 19.625C30.9193 18.0391 31.6029 16.4622 32.2773 14.8945C32.9518 13.3268 33.599 11.8229 34.2188 10.3828C34.8385 8.94271 35.3854 7.66667 35.8594 6.55469C36.3333 5.42448 36.7253 4.50391 37.0352 3.79297C37.3451 3.08203 37.5547 2.58073 37.6641 2.28906C37.7917 1.97917 38.0286 1.69661 38.375 1.44141C38.7214 1.1862 39.1315 1.05859 39.6055 1.05859L42.1758 1.16797L45.457 0.921875C46.8242 0.921875 47.5078 1.25911 47.5078 1.93359C47.5078 2.26172 47.207 2.48958 46.6055 2.61719C46.0039 2.72656 45.4935 2.82682 45.0742 2.91797C44.6549 3.00911 44.263 3.14583 43.8984 3.32812C43.0599 3.78385 42.6406 4.54036 42.6406 5.59766L44.0352 32.3672C44.181 34.7188 45.0651 36.0495 46.6875 36.3594C47.1432 36.4323 47.5898 36.4688 48.0273 36.4688C48.8112 36.4688 49.2031 36.7969 49.2031 37.4531C49.2031 38.0911 48.6289 38.4102 47.4805 38.4102C47.0247 38.4102 46.6328 38.3828 46.3047 38.3281C45.9766 38.2917 45.6484 38.2552 45.3203 38.2188C44.3359 38.0729 43.4427 38 42.6406 38L36.8164 38.4102C35.6315 38.4102 35.0391 38.0729 35.0391 37.3984C35.0391 36.8333 35.4674 36.5508 36.3242 36.5508C37.181 36.5508 37.8008 36.487 38.1836 36.3594C38.5846 36.2135 38.8763 35.9948 39.0586 35.7031C39.3138 35.2656 39.4414 34.2357 39.4414 32.6133V30.043C39.4414 28.8034 39.3503 26.2878 39.168 22.4961C38.9857 18.7044 38.8581 15.9974 38.7852 14.375C38.6393 10.9479 38.5026 8.35026 38.375 6.58203L25.4414 36.2227C24.9674 37.2982 24.5391 37.8359 24.1562 37.8359C23.901 37.8359 23.6823 37.7083 23.5 37.4531C23.3359 37.1797 23.1081 36.7513 22.8164 36.168L9.58203 8.90625C8.88932 18.1849 8.54297 26.6706 8.54297 34.3633C8.54297 35.8581 9.75521 36.6055 12.1797 36.6055C12.8359 36.6055 13.1641 36.8698 13.1641 37.3984C13.1641 38.0729 12.5716 38.4102 11.3867 38.4102L6.95703 38C6.02734 38 5.15234 38.0638 4.33203 38.1914C3.51172 38.3372 2.90104 38.4102 2.5 38.4102ZM39.1953 4.69531L39.2227 4.66797L39.1953 4.69531ZM54.2891 38.4102C53.2865 38.4102 52.7852 38.0729 52.7852 37.3984C52.7852 36.8698 53.1133 36.6055 53.7695 36.6055L55.1094 36.7422C56.1302 36.7422 56.8229 36.3047 57.1875 35.4297C57.5885 34.4271 57.7891 32.4219 57.7891 29.4141V10.0273C57.7891 7.03776 57.6432 5.16016 57.3516 4.39453C57.0781 3.61068 56.7682 3.11849 56.4219 2.91797C56.0755 2.71745 55.638 2.61719 55.1094 2.61719L53.7695 2.72656C53.1133 2.72656 52.7852 2.46224 52.7852 1.93359C52.7852 1.25911 53.2682 0.921875 54.2344 0.921875C55.2188 0.921875 56.0208 0.949219 56.6406 1.00391C57.2786 1.04036 57.9167 1.08594 58.5547 1.14062C60.25 1.28646 61.5807 1.35938 62.5469 1.35938C63.5312 1.35938 64.5703 1.34115 65.6641 1.30469C66.7578 1.25 67.9792 1.19531 69.3281 1.14062C72.8828 0.994792 75.3438 0.921875 76.7109 0.921875C78.0964 0.921875 78.862 1.00391 79.0078 1.16797C79.1719 1.33203 79.2539 1.5599 79.2539 1.85156C79.2539 2.125 79.2448 2.38932 79.2266 2.64453C79.2266 2.89974 79.2174 3.18229 79.1992 3.49219C79.181 3.91146 79.1263 4.54036 79.0352 5.37891C78.944 6.19922 78.8346 6.75521 78.707 7.04688C78.5794 7.32031 78.3971 7.45703 78.1602 7.45703C77.9232 7.45703 77.7591 7.40234 77.668 7.29297C77.5768 7.16536 77.4492 6.89193 77.2852 6.47266C77.1393 6.03516 76.8659 5.625 76.4648 5.24219C76.082 4.84115 75.4714 4.51302 74.6328 4.25781C72.9922 3.76562 69.957 3.51953 65.5273 3.51953H63.0938C62.6562 3.51953 62.3737 3.58333 62.2461 3.71094C62.1367 3.83854 62.082 4.13021 62.082 4.58594V16.0977C64.2513 16.3529 66.0469 16.4805 67.4688 16.4805C68.9089 16.4805 69.9297 16.4714 70.5312 16.4531C71.151 16.4349 71.6615 16.3802 72.0625 16.2891C72.7734 16.1615 73.2839 15.8424 73.5938 15.332C74.2135 14.3659 74.7148 13.8828 75.0977 13.8828C75.5898 13.8828 75.8359 14.138 75.8359 14.6484L74.8789 18.5312L74.9883 20.6094C74.9883 21.9219 74.6784 22.5781 74.0586 22.5781C73.5299 22.5781 73.2656 22.2318 73.2656 21.5391C73.2656 20.8281 73.2201 20.2995 73.1289 19.9531C73.056 19.6068 72.8281 19.3333 72.4453 19.1328C71.862 18.8411 70.4401 18.6953 68.1797 18.6953C65.9193 18.6953 63.8867 18.7956 62.082 18.9961V25.4766C62.082 29.5052 62.1732 32.832 62.3555 35.457C63.832 35.7852 65.4362 35.9492 67.168 35.9492C68.8997 35.9492 70.3763 35.9036 71.5977 35.8125C72.8372 35.7214 73.9036 35.5391 74.7969 35.2656C76.5651 34.737 77.8685 33.7253 78.707 32.2305C79.0716 31.5742 79.4362 31.2461 79.8008 31.2461C80.1654 31.2461 80.3477 31.5104 80.3477 32.0391C80.3477 32.2578 80.2839 32.5404 80.1562 32.8867C80.0104 33.3607 79.8008 34.0716 79.5273 35.0195C79.2539 35.9492 79.0443 36.6237 78.8984 37.043C78.7526 37.4622 78.5885 37.7812 78.4062 38C78.1328 38.3646 77.5951 38.5469 76.793 38.5469C75.9909 38.5469 75.2161 38.5378 74.4688 38.5195C73.7214 38.5195 72.9375 38.5104 72.1172 38.4922C71.1693 38.4557 69.7018 38.3828 67.7148 38.2734C62.7565 38.0365 59.849 37.9544 58.9922 38.0273C58.1354 38.1003 57.4883 38.1549 57.0508 38.1914C56.6133 38.2461 56.1849 38.2917 55.7656 38.3281C55.3464 38.3828 54.8542 38.4102 54.2891 38.4102ZM86.1992 38.4102C85.0143 38.4102 84.4219 38.0729 84.4219 37.3984C84.4219 36.8698 84.75 36.6055 85.4062 36.6055L86.7461 36.7422C87.8398 36.7422 88.5781 36.1315 88.9609 34.9102C89.2708 33.8711 89.4258 32.0117 89.4258 29.332V10.0273C89.4258 7.34766 89.2982 5.59766 89.043 4.77734C88.7878 3.9388 88.4779 3.3737 88.1133 3.08203C87.7669 2.77214 87.3112 2.61719 86.7461 2.61719L85.4062 2.72656C84.75 2.72656 84.4219 2.46224 84.4219 1.93359C84.4219 1.25911 84.9232 0.921875 85.9258 0.921875C86.9284 0.921875 87.8034 0.994792 88.5508 1.14062C89.2982 1.28646 90.0365 1.35938 90.7656 1.35938C92.6979 1.35938 94.3021 1.26823 95.5781 1.08594C97.5104 0.8125 99.7253 0.675781 102.223 0.675781C104.738 0.675781 107.236 1.1224 109.715 2.01562C112.212 2.90885 114.354 4.17578 116.141 5.81641C119.951 9.29818 121.855 13.8737 121.855 19.543C121.855 24.9206 119.987 29.3958 116.25 32.9688C112.385 36.6875 107.318 38.5469 101.047 38.5469C99.5339 38.5469 98.0664 38.4831 96.6445 38.3555C94.0013 38.1185 92.0872 38 90.9023 38L86.1992 38.4102ZM93.7188 25.3945C93.7188 28.6393 93.8008 31.6562 93.9648 34.4453C96.3893 35.7031 99.1146 36.332 102.141 36.332C104.346 36.332 106.634 35.8125 109.004 34.7734C112.759 33.1328 115.211 30.1979 116.359 25.9688C116.779 24.474 116.988 22.5417 116.988 20.1719C116.988 17.7839 116.578 15.4779 115.758 13.2539C114.956 11.0117 113.826 9.125 112.367 7.59375C109.396 4.4401 105.395 2.86328 100.363 2.86328C96.7721 2.86328 94.7122 3.33724 94.1836 4.28516C93.9102 4.79557 93.7643 5.37891 93.7461 6.03516C93.7279 6.67318 93.7188 7.30208 93.7188 7.92188V25.3945ZM128.609 38.4102C127.424 38.4102 126.832 38.0729 126.832 37.3984C126.832 36.8698 127.16 36.6055 127.816 36.6055L129.156 36.7422C130.141 36.7422 130.824 36.2682 131.207 35.3203C131.626 34.263 131.836 32.2669 131.836 29.332L131.699 10.0273C131.699 7.01953 131.535 5.13281 131.207 4.36719C130.897 3.58333 130.569 3.10026 130.223 2.91797C129.895 2.71745 129.493 2.61719 129.02 2.61719L127.68 2.72656C127.023 2.72656 126.695 2.46224 126.695 1.93359C126.695 1.25911 127.197 0.921875 128.199 0.921875C129.202 0.921875 130.15 0.994792 131.043 1.14062C131.954 1.28646 132.902 1.35938 133.887 1.35938C134.871 1.35938 135.81 1.28646 136.703 1.14062C137.596 0.994792 138.535 0.921875 139.52 0.921875C140.522 0.921875 141.023 1.25911 141.023 1.93359C141.023 2.46224 140.695 2.72656 140.039 2.72656L138.727 2.61719C137.742 2.61719 137.059 3.09115 136.676 4.03906C136.257 5.09635 136.047 7.09245 136.047 10.0273L136.184 29.332C136.184 32.2669 136.357 34.1354 136.703 34.9375C137.068 35.7396 137.432 36.2409 137.797 36.4414C138.161 36.6419 138.581 36.7422 139.055 36.7422L140.367 36.6055C141.023 36.6055 141.352 36.8698 141.352 37.3984C141.352 38.0729 140.768 38.4102 139.602 38.4102C139 38.4102 138.362 38.3555 137.688 38.2461C135.409 37.8815 133.467 37.8177 131.863 38.0547C130.277 38.2917 129.193 38.4102 128.609 38.4102ZM189.449 41.4727C189.741 41.4727 189.887 41.6185 189.887 41.9102C189.887 42.2018 189.741 42.4661 189.449 42.7031C189.176 42.9583 188.802 43.1771 188.328 43.3594C187.289 43.7786 186.314 43.9883 185.402 43.9883C184.509 43.9883 183.725 43.9336 183.051 43.8242C182.395 43.7331 181.638 43.5781 180.781 43.3594C178.94 42.8854 176.898 42.1745 174.656 41.2266C170.664 39.5312 167.292 38.6836 164.539 38.6836C161.805 38.6836 159.289 38.2005 156.992 37.2344C154.714 36.25 152.745 34.901 151.086 33.1875C147.622 29.5781 145.891 25.0299 145.891 19.543C145.891 14.0924 147.805 9.5625 151.633 5.95312C153.383 4.27604 155.415 2.98177 157.73 2.07031C160.046 1.14062 162.543 0.675781 165.223 0.675781C167.902 0.675781 170.391 1.16797 172.688 2.15234C174.984 3.11849 176.953 4.45833 178.594 6.17188C182.039 9.79948 183.762 14.4023 183.762 19.9805C183.762 23.9909 182.686 27.5638 180.535 30.6992C178.384 33.8346 175.486 36.0768 171.84 37.4258C174.465 37.6081 177.135 38.3464 179.852 39.6406C182.003 40.6615 183.488 41.3086 184.309 41.582C185.147 41.8737 185.831 42.0195 186.359 42.0195C186.906 42.0195 187.316 41.9922 187.59 41.9375C187.863 41.8828 188.091 41.819 188.273 41.7461C188.766 41.5638 189.158 41.4727 189.449 41.4727ZM150.566 17.9297C150.566 20.2995 150.949 22.6328 151.715 24.9297C152.499 27.2266 153.602 29.2318 155.023 30.9453C158.068 34.6823 161.914 36.5508 166.562 36.5508C170.135 36.5508 173.079 35.1836 175.395 32.4492C177.764 29.6602 178.949 25.987 178.949 21.4297C178.949 16.0885 177.518 11.6589 174.656 8.14062C171.812 4.67708 168.212 2.94531 163.855 2.94531C160.264 2.94531 157.174 4.3125 154.586 7.04688C151.906 9.89062 150.566 13.5182 150.566 17.9297ZM188.766 38.4102C187.617 38.4102 187.043 38.1003 187.043 37.4805C187.043 36.8424 187.398 36.5143 188.109 36.4961C188.839 36.4596 189.467 36.332 189.996 36.1133C190.543 35.8945 191.081 35.5391 191.609 35.0469C192.503 34.2266 193.724 32.5404 195.273 29.9883L201.727 19.2148L194.48 7.10156C193.478 5.36979 192.749 4.28516 192.293 3.84766C191.6 3.17318 190.826 2.83594 189.969 2.83594C189.112 2.83594 188.684 2.51693 188.684 1.87891C188.684 1.24089 189.276 0.921875 190.461 0.921875L195.246 1.35938C196.066 1.35938 196.841 1.28646 197.57 1.14062C198.318 0.994792 198.992 0.921875 199.594 0.921875C200.742 0.921875 201.316 1.20443 201.316 1.76953C201.316 2.17057 201.161 2.42578 200.852 2.53516C200.542 2.64453 200.195 2.72656 199.812 2.78125C199.43 2.83594 199.083 2.90885 198.773 3C198.464 3.09115 198.309 3.3099 198.309 3.65625C198.309 4.33073 198.664 5.27865 199.375 6.5L204.324 14.8945L209.328 6.58203C210.112 5.26953 210.504 4.40365 210.504 3.98438C210.504 3.14583 209.793 2.72656 208.371 2.72656C207.715 2.72656 207.387 2.46224 207.387 1.93359C207.387 1.25911 207.979 0.921875 209.164 0.921875L212.773 1.33203C213.74 1.33203 214.605 1.26823 215.371 1.14062C216.137 0.994792 216.729 0.921875 217.148 0.921875C218.297 0.921875 218.871 1.25 218.871 1.90625C218.871 2.54427 218.516 2.86328 217.805 2.86328C217.112 2.86328 216.501 2.9362 215.973 3.08203C215.462 3.22786 214.943 3.52865 214.414 3.98438C213.375 4.89583 212.117 6.68229 210.641 9.34375L205.828 17.4102L214.113 31.3828C216.137 34.7734 218.105 36.4688 220.02 36.4688C220.803 36.4688 221.195 36.7969 221.195 37.4531C221.195 38.0911 220.621 38.4102 219.473 38.4102C218.999 38.4102 218.598 38.3828 218.27 38.3281C217.941 38.2917 217.613 38.2552 217.285 38.2188C216.301 38.0729 215.417 38 214.633 38L210.066 38.4102C208.882 38.4102 208.289 38.0729 208.289 37.3984C208.289 36.8698 208.553 36.6055 209.082 36.6055C209.629 36.6055 210.021 36.5872 210.258 36.5508C210.513 36.4961 210.695 36.4232 210.805 36.332C210.987 36.2044 211.078 35.9674 211.078 35.6211C211.042 35.5664 210.941 35.2747 210.777 34.7461C210.632 34.1992 210.249 33.4062 209.629 32.3672L203.23 21.7305L196.641 32.75C195.857 34.0625 195.465 34.9284 195.465 35.3477C195.465 36.1862 196.176 36.6055 197.598 36.6055C198.254 36.6055 198.582 36.8698 198.582 37.3984C198.582 38.0729 197.99 38.4102 196.805 38.4102L193.195 38C192.284 38 191.418 38.0638 190.598 38.1914C189.777 38.3372 189.167 38.4102 188.766 38.4102Z" fill="#3674B5"/>
</svg>
